<svg width="49" height="49" viewBox="0 0 49 49" fill="none" xmlns="http://www.w3.org/2000/svg">
<g id="fluent:ios-arrow-24-filled">
<path id="Vector" d="M23.0157 41.4724C22.8315 41.6673 22.6875 41.8966 22.5919 42.1472C22.4963 42.3977 22.451 42.6647 22.4586 42.9327C22.4662 43.2008 22.5265 43.4648 22.6361 43.7095C22.7457 43.9543 22.9024 44.1751 23.0973 44.3593C23.2922 44.5435 23.5215 44.6875 23.7721 44.7831C24.0227 44.8786 24.2896 44.9239 24.5577 44.9164C24.8258 44.9088 25.0897 44.8485 25.3345 44.7389C25.5793 44.6293 25.8001 44.4725 25.9842 44.2776L43.3384 25.9026C43.6968 25.5236 43.8965 25.0217 43.8965 24.5C43.8965 23.9783 43.6968 23.4765 43.3384 23.0974L25.9842 4.72034C25.8013 4.52115 25.5805 4.3603 25.3349 4.24714C25.0892 4.13398 24.8235 4.07077 24.5532 4.06117C24.2829 4.05156 24.0134 4.09576 23.7603 4.1912C23.5072 4.28664 23.2756 4.43141 23.079 4.61711C22.8823 4.80281 22.7245 5.02574 22.6147 5.27293C22.505 5.52013 22.4454 5.78668 22.4395 6.05709C22.4336 6.3275 22.4815 6.59639 22.5804 6.84813C22.6793 7.09988 22.8273 7.32946 23.0157 7.52354L39.0468 24.5L23.0157 41.4724Z" fill="#E6C591"/>
</g>
</svg>
