<svg width="49" height="49" viewBox="0 0 49 49" fill="none" xmlns="http://www.w3.org/2000/svg">
<g id="fluent:ios-arrow-24-filled">
<path id="Vector" d="M25.9843 7.52762C26.1685 7.3327 26.3125 7.10341 26.4081 6.85284C26.5037 6.60227 26.549 6.33533 26.5414 6.06725C26.5338 5.79918 26.4735 5.53522 26.3639 5.29045C26.2543 5.04569 26.0976 4.8249 25.9027 4.64071C25.7078 4.45651 25.4785 4.31251 25.2279 4.21693C24.9773 4.12135 24.7104 4.07606 24.4423 4.08364C24.1742 4.09122 23.9103 4.15154 23.6655 4.26113C23.4207 4.37072 23.1999 4.52745 23.0158 4.72237L5.66159 23.0974C5.3032 23.4764 5.10352 23.9783 5.10352 24.5C5.10352 25.0217 5.3032 25.5235 5.66159 25.9026L23.0158 44.2797C23.1987 44.4789 23.4195 44.6397 23.6651 44.7529C23.9108 44.866 24.1765 44.9292 24.4468 44.9388C24.7171 44.9484 24.9866 44.9042 25.2397 44.8088C25.4928 44.7134 25.7244 44.5686 25.921 44.3829C26.1177 44.1972 26.2755 43.9743 26.3853 43.7271C26.495 43.4799 26.5546 43.2133 26.5605 42.9429C26.5664 42.6725 26.5185 42.4036 26.4196 42.1519C26.3207 41.9001 26.1727 41.6705 25.9843 41.4765L9.95317 24.5L25.9843 7.52762Z" fill="#E6C591"/>
</g>
</svg>
